<?xml version="1.0" encoding="UTF-8" standalone="no"?> <!-- Created with Vectornator for iOS (http://vectornator.io/) --><!DOCTYPE svg PUBLIC "-//W3C//DTD SVG 1.1//EN" "http://www.w3.org/Graphics/SVG/1.1/DTD/svg11.dtd">
<svg style="fill-rule:evenodd;clip-rule:evenodd;stroke-linecap:round;stroke-linejoin:round;" xmlns:vectornator="http://vectornator.io" xmlns:xlink="http://www.w3.org/1999/xlink" xmlns="http://www.w3.org/2000/svg" xml:space="preserve" version="1.1" viewBox="0 0 1024 1024.01">
<metadata>
<vectornator:setting key="DimensionsVisible" value="1"/>
<vectornator:setting key="SnapToGrid" value="0"/>
<vectornator:setting key="SnapToPoints" value="0"/>
<vectornator:setting key="GuidesVisible" value="1"/>
<vectornator:setting key="RulersVisible" value="1"/>
<vectornator:setting key="CMYKEnabledKey" value="0"/>
<vectornator:setting key="SnapToEdges" value="0"/>
<vectornator:setting key="DisplayWhiteBackground" value="0"/>
<vectornator:setting key="SnapToGuides" value="1"/>
<vectornator:setting key="GridSpacing" value="36"/>
<vectornator:setting key="Units" value="Pixels"/>
<vectornator:setting key="DynamicGuides" value="0"/>
<vectornator:setting key="New" value="1"/>
</metadata>
<defs/>
<g id="Layer 1" vectornator:layerName="Layer 1">
<g opacity="1">
<path d="M931.337+512.003L846.434+423.411L846.434+477.431L591.726+477.431L771.885+289.442L808.124+327.256L808.124+201.93L688.018+201.93L724.257+239.744L545.133+428.813L545.133+163.036L596.903+163.036L512+74.4439L427.097+163.036L478.867+163.036L478.867+428.813L298.708+240.825L334.947+203.011L214.84+203.011L214.84+328.336L251.079+290.523L431.239+478.511L177.566+478.511L177.566+424.491L92.6629+512.003L177.566+600.596L177.566+546.576L432.274+546.576L252.115+734.564L214.84+695.67L214.84+820.996L334.947+820.996L298.708+783.182L478.867+595.194L478.867+860.971L427.097+860.971L512+949.563L596.903+860.971L545.133+860.971L545.133+595.194L725.292+783.182L688.018+822.076L808.124+822.076L808.124+696.751L771.885+734.564L591.726+546.576L846.434+546.576L846.434+600.596L931.337+512.003Z" opacity="0.9" fill="#607d8b"/>
<g opacity="1">
<path d="M387.06+229.007C401.406+229.007+412.557+240.643+412.557+255.613L412.557+395.291C412.557+410.259+401.406+421.896+387.06+421.896C372.714+421.896+361.563+410.259+361.563+395.291L361.563+255.613C361.563+240.643+372.714+229.007+387.06+229.007Z" opacity="1" fill="#ffffff"/>
<path d="M463.552+229.007C477.898+229.007+489.049+240.643+489.049+255.613L489.049+292.975C470.485+300.969+457.178+319.878+457.178+342.08C457.178+364.264+470.436+383.337+489.049+391.29L489.049+395.292C489.049+410.26+477.898+421.897+463.552+421.897C449.206+421.897+438.055+410.26+438.055+395.292L438.055+255.614C438.055+240.644+449.206+229.008+463.552+229.007Z" opacity="1" fill="#ffffff"/>
<path d="M540.044+229.007C554.39+229.007+565.541+240.643+565.541+255.613L565.541+288.351L514.547+288.854L514.547+255.647C514.547+240.677+525.698+229.042+540.044+229.042L540.044+229.007Z" opacity="1" fill="#ffffff"/>
<path d="M616.536+229.007C630.882+229.007+642.033+240.643+642.033+255.613L642.033+289.599C637.898+288.483+633.654+287.739+629.185+287.789L591.039+288.191L591.039+256.544C591.049+256.243+591.049+255.941+591.039+255.639C591.039+240.668+602.19+229.033+616.536+229.033L616.536+229.007Z" opacity="1" fill="#ffffff"/>
<path d="M629.384+314.385L508.272+315.481C493.766+315.783+482.675+327.134+482.675+342.086C482.675+357.055+493.826+368.692+508.172+368.692L584.664+368.692C591.705+368.693+597.412+374.648+597.413+381.995L597.413+415.251C597.412+422.598+591.705+428.553+584.664+428.554C556.35+428.554+533.669+452.22+533.67+481.765L533.67+520.528L508.172+520.528L508.172+493.976L368.335+493.976C370.464+520.638+387.155+546.216+403.693+551.761C408.976+553.524+412.56+558.65+412.557+564.438L412.557+794.999L600.6+794.999L600.6+564.438C600.596+558.588+604.254+553.421+609.614+551.707C635.789+543.381+654.782+518.607+654.782+488.416L654.782+340.991C654.782+326.022+643.597+314.385+629.384+314.385ZM444.429+567.135L469.926+567.135L469.926+593.741L444.429+593.741L444.429+567.135ZM444.429+620.346L469.926+620.346L469.926+766.676L444.429+766.676L444.429+620.346Z" opacity="1" fill="#ffffff"/>
<path d="M514.547+395.292L571.916+395.292L571.916+407.453C559.991+409.876+548.942+414.864+539.397+421.743C525.387+421.341+514.547+410.018+514.547+395.292Z" opacity="1" fill="#ffffff"/>
<path d="M272.322+400.852L336.613+400.852C339.343+427.473+360.858+448.502+387.06+448.502C402.341+448.502+415.936+441.222+425.306+430.003C434.676+441.22+448.271+448.502+463.552+448.502C478.833+448.502+492.428+441.222+501.798+430.003C506.527+435.664+512.279+440.329+518.879+443.514C514.485+450.673+511.255+458.671+509.567+467.366L272.322+467.366L272.322+400.852Z" opacity="1" fill="#ffffff"/>
<path d="M680.279+400.852L718.525+400.852L718.525+467.366L680.279+467.366L680.279+400.852Z" opacity="1" fill="#ffffff"/>
</g>
<g opacity="1">
<path d="M870.358+512.678C874.829+509.693+877.668+505.013+877.657+499.916L877.363+369.926C877.353+365.678+875.717+362.284+873.269+359.741C872.453+358.893+871.637+358.046+870.006+357.2L858.184+350.008L766.177+350.234L754.387+357.485C749.915+360.469+747.076+365.149+747.087+370.247L747.381+500.236C747.391+504.484+749.027+507.879+751.475+510.422C752.292+511.269+753.108+512.117+754.738+512.962L766.561+520.155L857.753+519.93L870.358+512.678Z" opacity="1" fill="#ffffff"/>
<path d="M739.204+299.379C739.213+303.627+740.445+308.297+743.303+312.113L764.527+335.85L766.97+335.844L857.754+335.196L860.197+335.19L881.313+311.349C884.154+307.519+884.959+303.269+885.355+298.595L885.34+291.798C885.329+286.7+883.28+281.183+879.2+276.945L872.263+269.74C868.182+265.502+862.885+263.391+857.185+263.405L812.403+263.516L811.589+263.518L766.806+263.628C761.107+263.642+755.819+265.779+751.758+270.037L744.853+277.276C740.792+281.534+738.769+287.061+738.782+293.008L739.204+299.379Z" opacity="1" fill="#ffffff"/>
<path d="M885.964+579.264L885.949+572.468C885.939+568.22+884.707+563.55+881.849+559.734L859.809+535.149L858.995+535.151L766.99+536.227L766.176+536.229L744.247+560.922C741.406+564.752+740.602+569.002+740.205+573.676L740.22+580.473C740.234+586.42+742.282+591.937+746.363+596.175L753.3+603.38C757.38+607.618+762.678+609.729+768.377+609.715L813.159+609.605L813.974+609.603L858.756+609.492C864.455+609.478+869.743+607.341+873.805+603.083L880.709+595.845C883.548+591.165+885.978+585.212+885.964+579.264Z" opacity="1" fill="#ffffff"/>
<path d="M906.116+465.032C912.629+465.016+918.316+459.055+918.298+451.408L918.227+419.973C918.218+415.725+916.582+412.33+914.133+409.788C912.093+407.669+909.24+406.401+905.983+406.409L894.584+406.437L894.717+465.06L906.116+465.032Z" opacity="1" fill="#ffffff"/>
</g>
</g>
</g>
</svg>
